<mxfile host="app.diagrams.net" modified="2024-04-18T09:02:29.046Z" agent="Mozilla/5.0 (Macintosh; Intel Mac OS X 10_15_7) AppleWebKit/537.36 (KHTML, like Gecko) Chrome/123.0.0.0 Safari/537.36" etag="QIDN8BUt0yooiMJw92ri" version="24.2.2" type="github">
  <diagram name="第 1 页" id="uSWp1kO9mq3VQEvF_lTH">
    <mxGraphModel dx="1242" dy="1954" grid="1" gridSize="10" guides="1" tooltips="1" connect="1" arrows="1" fold="1" page="1" pageScale="1" pageWidth="827" pageHeight="1169" math="0" shadow="0">
      <root>
        <mxCell id="0" />
        <mxCell id="1" parent="0" />
        <mxCell id="FwOD_YeCZ98qcEM11IYZ-10" value="" style="rounded=1;whiteSpace=wrap;html=1;dashed=1;sketch=1;curveFitting=1;jiggle=2;" vertex="1" parent="1">
          <mxGeometry x="170" y="240" width="980" height="110" as="geometry" />
        </mxCell>
        <mxCell id="FwOD_YeCZ98qcEM11IYZ-6" value="" style="rounded=1;whiteSpace=wrap;html=1;dashed=1;sketch=1;curveFitting=1;jiggle=2;" vertex="1" parent="1">
          <mxGeometry x="170" y="390" width="980" height="110" as="geometry" />
        </mxCell>
        <mxCell id="FwOD_YeCZ98qcEM11IYZ-1" value="微信&lt;br&gt;&lt;font color=&quot;#660000&quot; style=&quot;font-size: 14px;&quot;&gt;&lt;b&gt;（103个破解功能）&lt;/b&gt;&lt;/font&gt;" style="rounded=0;whiteSpace=wrap;html=1;fontSize=20;fillColor=#d5e8d4;strokeColor=#82b366;sketch=1;curveFitting=1;jiggle=2;" vertex="1" parent="1">
          <mxGeometry x="210" y="420" width="170" height="60" as="geometry" />
        </mxCell>
        <mxCell id="FwOD_YeCZ98qcEM11IYZ-3" value="企微&lt;div&gt;&lt;b style=&quot;color: rgb(102, 0, 0); font-size: 14px;&quot;&gt;（121个破解功能）&lt;/b&gt;&lt;br&gt;&lt;/div&gt;" style="rounded=0;whiteSpace=wrap;html=1;fontSize=20;fillColor=#dae8fc;strokeColor=#6c8ebf;sketch=1;curveFitting=1;jiggle=2;" vertex="1" parent="1">
          <mxGeometry x="460" y="420" width="170" height="60" as="geometry" />
        </mxCell>
        <mxCell id="FwOD_YeCZ98qcEM11IYZ-4" value="QQ&lt;br&gt;&lt;b style=&quot;color: rgb(102, 0, 0); font-size: 14px;&quot;&gt;（86个破解功能）&lt;/b&gt;" style="rounded=0;whiteSpace=wrap;html=1;fontSize=20;fillColor=#ffe6cc;strokeColor=#d79b00;sketch=1;curveFitting=1;jiggle=2;" vertex="1" parent="1">
          <mxGeometry x="710" y="420" width="170" height="60" as="geometry" />
        </mxCell>
        <mxCell id="FwOD_YeCZ98qcEM11IYZ-5" value="QQ空间&lt;br&gt;&lt;b style=&quot;color: rgb(102, 0, 0); font-size: 14px;&quot;&gt;（6个破解功能）&lt;/b&gt;" style="rounded=0;whiteSpace=wrap;html=1;fontSize=20;fillColor=#e1d5e7;strokeColor=#9673a6;sketch=1;curveFitting=1;jiggle=2;" vertex="1" parent="1">
          <mxGeometry x="960" y="420" width="170" height="60" as="geometry" />
        </mxCell>
        <mxCell id="FwOD_YeCZ98qcEM11IYZ-7" value="业务所需核心功能破解" style="rounded=0;whiteSpace=wrap;html=1;fontSize=20;sketch=1;curveFitting=1;jiggle=2;" vertex="1" parent="1">
          <mxGeometry x="274" y="265" width="280" height="60" as="geometry" />
        </mxCell>
        <mxCell id="FwOD_YeCZ98qcEM11IYZ-9" value="持续安全对抗降低封号率" style="rounded=0;whiteSpace=wrap;html=1;fontSize=20;sketch=1;curveFitting=1;jiggle=2;" vertex="1" parent="1">
          <mxGeometry x="730" y="265" width="280" height="60" as="geometry" />
        </mxCell>
        <mxCell id="FwOD_YeCZ98qcEM11IYZ-11" value="&lt;font size=&quot;1&quot; style=&quot;&quot;&gt;&lt;b style=&quot;font-size: 28px;&quot;&gt;对外功能分类集合&lt;/b&gt;&lt;/font&gt;" style="rounded=0;whiteSpace=wrap;html=1;fillColor=#fad9d5;strokeColor=#ae4132;sketch=1;curveFitting=1;jiggle=2;" vertex="1" parent="1">
          <mxGeometry x="170" y="150" width="980" height="60" as="geometry" />
        </mxCell>
        <mxCell id="FwOD_YeCZ98qcEM11IYZ-12" value="登入登出" style="rounded=0;whiteSpace=wrap;html=1;fontSize=20;sketch=1;curveFitting=1;jiggle=2;shadow=1;glass=0;" vertex="1" parent="1">
          <mxGeometry x="170" y="90" width="160" height="60" as="geometry" />
        </mxCell>
        <mxCell id="FwOD_YeCZ98qcEM11IYZ-13" value="不同类型消息收发" style="rounded=0;whiteSpace=wrap;html=1;fontSize=20;sketch=1;curveFitting=1;jiggle=2;shadow=1;glass=0;" vertex="1" parent="1">
          <mxGeometry x="334" y="90" width="220" height="60" as="geometry" />
        </mxCell>
        <mxCell id="FwOD_YeCZ98qcEM11IYZ-14" value="群组管理" style="rounded=0;whiteSpace=wrap;html=1;fontSize=20;sketch=1;curveFitting=1;jiggle=2;shadow=1;glass=0;" vertex="1" parent="1">
          <mxGeometry x="554" y="90" width="160" height="60" as="geometry" />
        </mxCell>
        <mxCell id="FwOD_YeCZ98qcEM11IYZ-15" value="联系人管理" style="rounded=0;whiteSpace=wrap;html=1;fontSize=20;sketch=1;curveFitting=1;jiggle=2;shadow=1;glass=0;" vertex="1" parent="1">
          <mxGeometry x="714" y="90" width="160" height="60" as="geometry" />
        </mxCell>
        <mxCell id="FwOD_YeCZ98qcEM11IYZ-16" value="通知管理" style="rounded=0;whiteSpace=wrap;html=1;fontSize=20;sketch=1;curveFitting=1;jiggle=2;shadow=1;glass=0;" vertex="1" parent="1">
          <mxGeometry x="874" y="90" width="160" height="60" as="geometry" />
        </mxCell>
        <mxCell id="FwOD_YeCZ98qcEM11IYZ-17" value="其它" style="rounded=0;whiteSpace=wrap;html=1;fontSize=20;sketch=1;curveFitting=1;jiggle=2;shadow=1;glass=0;" vertex="1" parent="1">
          <mxGeometry x="1034" y="90" width="116" height="60" as="geometry" />
        </mxCell>
        <mxCell id="FwOD_YeCZ98qcEM11IYZ-18" value="" style="rounded=1;whiteSpace=wrap;html=1;" vertex="1" parent="1">
          <mxGeometry x="180" y="-320" width="300" height="280" as="geometry" />
        </mxCell>
        <mxCell id="FwOD_YeCZ98qcEM11IYZ-19" value="超核" style="text;html=1;align=center;verticalAlign=middle;whiteSpace=wrap;rounded=0;fontSize=23;" vertex="1" parent="1">
          <mxGeometry x="300" y="-310" width="60" height="30" as="geometry" />
        </mxCell>
        <mxCell id="FwOD_YeCZ98qcEM11IYZ-20" value="提升服务容量、建联效率、服务质量" style="text;html=1;align=center;verticalAlign=middle;whiteSpace=wrap;rounded=0;fontColor=#660000;fontStyle=1;fontSize=16;" vertex="1" parent="1">
          <mxGeometry x="200" y="-270" width="260" height="30" as="geometry" />
        </mxCell>
      </root>
    </mxGraphModel>
  </diagram>
</mxfile>
